<?xml version="1.0" encoding="UTF-8" standalone="no"?>
<!-- Created with Inkscape (http://www.inkscape.org/) -->

<svg
   width="48"
   height="48"
   viewBox="0 0 12.7 12.7"
   version="1.1"
   id="svg1"
   inkscape:version="1.4.3 (0d15f75042, 2025-12-25)"
   sodipodi:docname="movement-dots.svg"
   xmlns:inkscape="http://www.inkscape.org/namespaces/inkscape"
   xmlns:sodipodi="http://sodipodi.sourceforge.net/DTD/sodipodi-0.dtd"
   xmlns="http://www.w3.org/2000/svg"
   xmlns:svg="http://www.w3.org/2000/svg">
  <sodipodi:namedview
     id="namedview1"
     pagecolor="#505050"
     bordercolor="#ffffff"
     borderopacity="1"
     inkscape:showpageshadow="0"
     inkscape:pageopacity="0"
     inkscape:pagecheckerboard="1"
     inkscape:deskcolor="#505050"
     inkscape:document-units="px"
     showguides="true"
     inkscape:zoom="8"
     inkscape:cx="13.5"
     inkscape:cy="22.75"
     inkscape:window-width="1366"
     inkscape:window-height="699"
     inkscape:window-x="0"
     inkscape:window-y="0"
     inkscape:window-maximized="1"
     inkscape:current-layer="layer1">
    <sodipodi:guide
       position="6.3499999,12.7"
       orientation="1,0"
       id="guide8"
       inkscape:locked="false" />
  </sodipodi:namedview>
  <defs
     id="defs1" />
  <g
     inkscape:label="Layer 1"
     inkscape:groupmode="layer"
     id="layer1">
    <path
       id="path3"
       style="stroke-width:0;stroke-linecap:round;stroke-linejoin:round"
       d="M 4.7625 2.1166667 A 1.0583333 1.0583333 0 0 0 3.7041667 3.175 A 1.0583333 1.0583333 0 0 0 4.7625 4.2333333 A 1.0583333 1.0583333 0 0 0 5.8208333 3.175 A 1.0583333 1.0583333 0 0 0 4.7625 2.1166667 z M 7.9375 2.1166667 A 1.0583333 1.0583333 0 0 0 6.8791667 3.175 A 1.0583333 1.0583333 0 0 0 7.9375 4.2333333 A 1.0583333 1.0583333 0 0 0 8.9958333 3.175 A 1.0583333 1.0583333 0 0 0 7.9375 2.1166667 z M 4.7625 5.2916667 A 1.0583333 1.0583333 0 0 0 3.7041667 6.35 A 1.0583333 1.0583333 0 0 0 4.7625 7.4083333 A 1.0583333 1.0583333 0 0 0 5.8208333 6.35 A 1.0583333 1.0583333 0 0 0 4.7625 5.2916667 z M 7.9375 5.2916667 A 1.0583333 1.0583333 0 0 0 6.8791667 6.35 A 1.0583333 1.0583333 0 0 0 7.9375 7.4083333 A 1.0583333 1.0583333 0 0 0 8.9958333 6.35 A 1.0583333 1.0583333 0 0 0 7.9375 5.2916667 z M 4.7625 8.4666667 A 1.0583333 1.0583333 0 0 0 3.7041667 9.525 A 1.0583333 1.0583333 0 0 0 4.7625 10.583333 A 1.0583333 1.0583333 0 0 0 5.8208333 9.525 A 1.0583333 1.0583333 0 0 0 4.7625 8.4666667 z M 7.9375 8.4666667 A 1.0583333 1.0583333 0 0 0 6.8791667 9.525 A 1.0583333 1.0583333 0 0 0 7.9375 10.583333 A 1.0583333 1.0583333 0 0 0 8.9958333 9.525 A 1.0583333 1.0583333 0 0 0 7.9375 8.4666667 z " />
  </g>
</svg>
